<?xml version="1.0" standalone="no"?>
<!DOCTYPE svg PUBLIC "-//W3C//DTD SVG 20010904//EN"
 "http://www.w3.org/TR/2001/REC-SVG-20010904/DTD/svg10.dtd">
<svg version="1.0" xmlns="http://www.w3.org/2000/svg"
 width="500.000000pt" height="500.000000pt" viewBox="0 0 500.000000 500.000000"
 preserveAspectRatio="xMidYMid meet">
<metadata>
Created by potrace 1.11, written by Peter Selinger 2001-2013
</metadata>
<g transform="translate(0.000000,500.000000) scale(0.100000,-0.100000)"
fill="#000000" stroke="none">
<path d="M2250 4990 c-219 -28 -332 -52 -495 -102 -759 -235 -1369 -830 -1623
-1583 -36 -108 -74 -247 -86 -315 -13 -77 -16 -98 -21 -125 -21 -122 -28 -485
-13 -630 113 -1074 923 -1969 1978 -2184 94 -19 128 -24 265 -41 69 -9 487 -6
535 3 14 3 47 8 73 12 27 4 59 8 70 11 12 2 35 7 50 9 163 30 382 101 548 176
63 29 119 55 124 59 6 4 42 24 80 45 165 89 365 241 523 398 411 406 663 927
730 1512 9 80 9 444 -1 525 -12 109 -15 134 -21 165 -3 17 -8 44 -11 60 -63
338 -230 714 -446 1006 -299 402 -717 708 -1199 877 -109 38 -278 80 -390 98
-19 3 -62 10 -95 16 -71 12 -496 18 -575 8z m433 -174 c124 -10 311 -42 417
-72 30 -8 62 -17 70 -19 8 -2 15 -4 15 -5 0 -1 7 -3 15 -5 84 -17 379 -151
514 -234 220 -135 458 -346 606 -537 270 -348 439 -753 486 -1164 24 -216 20
-479 -12 -645 -2 -10 -6 -37 -10 -60 -8 -57 -62 -263 -80 -310 -9 -22 -17 -47
-19 -55 -2 -8 -23 -62 -48 -120 -250 -584 -729 -1043 -1318 -1263 -100 -38
-250 -83 -303 -93 -17 -3 -50 -9 -73 -14 -22 -5 -65 -13 -95 -16 -29 -3 -55
-8 -58 -9 -11 -6 -219 -18 -307 -18 -89 1 -231 10 -274 18 -12 2 -47 7 -78 11
-31 3 -59 8 -62 10 -3 2 -21 6 -40 9 -19 3 -61 13 -94 21 -737 186 -1347 731
-1610 1437 -37 99 -90 281 -99 342 -4 21 -8 40 -10 44 -2 3 -7 35 -11 71 -3
35 -8 67 -10 70 -6 10 -17 206 -17 307 -1 85 11 263 17 273 2 3 6 33 10 67 5
48 44 218 79 343 12 45 83 224 114 290 57 120 156 288 215 365 115 151 134
173 262 300 217 216 484 391 769 504 85 34 287 98 339 106 17 3 48 10 67 15
19 5 60 12 90 15 30 4 57 8 60 10 3 2 52 6 110 10 58 4 106 8 107 9 4 3 195
-3 266 -8z"/>
<path d="M2447 4644 c-1 -1 -51 -5 -112 -9 -60 -4 -112 -8 -115 -10 -3 -1 -25
-6 -50 -9 -98 -13 -226 -44 -330 -79 -36 -11 -67 -22 -70 -22 -3 -1 -14 -5
-25 -10 -404 -163 -669 -360 -950 -706 -40 -50 -135 -197 -182 -284 -117 -217
-214 -518 -238 -740 -3 -33 -8 -80 -11 -105 -11 -103 -5 -334 11 -440 2 -14 7
-45 10 -70 3 -25 10 -61 15 -80 5 -19 12 -53 16 -75 3 -22 26 -101 50 -175
148 -453 453 -852 854 -1117 181 -120 428 -231 630 -283 97 -25 102 -26 214
-46 17 -3 68 -9 161 -19 115 -13 327 -6 480 15 64 9 82 12 140 24 308 64 631
217 893 423 155 123 328 312 447 489 79 116 213 382 230 454 2 8 11 35 19 59
15 42 43 143 52 184 2 10 5 26 8 35 3 9 8 31 11 47 130 712 -88 1418 -592
1917 -189 188 -352 304 -593 423 -120 60 -364 141 -480 161 -14 3 -30 6 -37 9
-6 2 -38 7 -70 11 -32 3 -60 8 -63 9 -10 6 -318 24 -323 19z m-777 -654 c194
-65 332 -243 345 -446 10 -144 -43 -289 -143 -391 l-55 -56 182 -456 c100
-251 202 -503 225 -561 24 -58 81 -200 127 -317 l84 -212 56 -1 c54 0 55 1 71
38 9 20 121 298 248 617 127 319 235 589 240 600 5 11 34 83 64 159 l55 139
-55 59 c-94 102 -138 216 -138 353 1 310 292 545 602 486 88 -17 180 -69 252
-141 105 -104 157 -239 147 -375 -8 -100 -13 -122 -52 -200 -84 -172 -275
-288 -462 -279 l-42 2 -51 -127 c-28 -69 -52 -130 -54 -136 -2 -5 -8 -23 -15
-40 -7 -16 -77 -194 -157 -395 -80 -201 -149 -374 -154 -385 -5 -11 -50 -122
-100 -248 l-90 -227 54 -55 c91 -94 138 -217 135 -355 -5 -213 -138 -391 -342
-459 -265 -88 -561 73 -632 345 -15 55 -20 147 -12 204 14 96 75 211 148 280
l37 35 -29 75 c-16 41 -34 84 -39 95 -5 11 -77 191 -160 400 -83 209 -157 394
-164 410 -7 17 -62 152 -121 302 l-108 272 -54 0 c-287 0 -515 229 -514 516 0
53 2 65 21 135 35 133 153 267 285 325 105 47 254 52 365 15z"/>
</g>
</svg>
