<?xml version="1.0" standalone="no"?>
<!DOCTYPE svg PUBLIC "-//W3C//DTD SVG 20010904//EN"
 "http://www.w3.org/TR/2001/REC-SVG-20010904/DTD/svg10.dtd">
<svg version="1.0" xmlns="http://www.w3.org/2000/svg"
 width="300.000000pt" height="300.000000pt" viewBox="0 0 300.000000 300.000000"
 preserveAspectRatio="xMidYMid meet">
<metadata>
Created by potrace 1.11, written by Peter Selinger 2001-2013
</metadata>
<g transform="translate(0.000000,300.000000) scale(0.100000,-0.100000)"
fill="#000000" stroke="none">
<path d="M230 2981 c-91 -19 -164 -79 -197 -161 -17 -43 -18 -109 -18 -1320 0
-1211 1 -1277 18 -1320 23 -57 79 -116 137 -144 l45 -21 1285 0 1285 0 45 21
c58 28 114 87 137 144 17 43 18 109 18 1320 0 1211 -1 1277 -18 1320 -23 57
-79 116 -137 144 l-45 21 -1260 1 c-693 1 -1276 -1 -1295 -5z m2422 -569 c73
-73 128 -136 128 -147 0 -24 -248 -275 -272 -275 -26 0 -68 44 -68 72 0 14 22
44 58 81 l57 58 -585 -3 c-654 -4 -631 -2 -785 -78 -243 -119 -385 -350 -386
-625 0 -187 48 -319 172 -468 27 -32 49 -64 49 -72 0 -25 -41 -65 -68 -65 -66
0 -204 203 -252 370 -29 101 -38 298 -17 395 68 319 290 557 602 646 78 23 94
23 673 29 l593 5 -56 55 c-35 35 -55 63 -55 78 0 27 41 72 67 72 9 0 75 -58
145 -128z m-552 -338 c71 -60 149 -194 196 -334 26 -79 28 -97 28 -245 1 -155
0 -163 -32 -255 -97 -279 -292 -468 -572 -552 -73 -22 -90 -22 -673 -28 l-598
-5 56 -55 c35 -35 55 -63 55 -78 0 -27 -41 -72 -67 -72 -24 0 -273 251 -273
275 0 24 249 275 273 275 25 0 67 -45 67 -72 0 -14 -21 -44 -57 -80 l-57 -58
557 0 c593 0 638 3 759 51 202 79 364 264 419 477 24 93 26 261 4 347 -22 86
-86 209 -150 289 -30 38 -55 74 -55 81 0 24 41 65 65 65 13 0 37 -12 55 -26z
m-879 -207 c77 -52 98 -129 59 -216 -11 -24 -20 -50 -20 -58 0 -25 170 -336
197 -361 31 -28 68 -23 98 13 11 14 58 98 104 187 l84 163 -21 47 c-30 65 -29
133 2 179 87 128 286 67 286 -87 0 -84 -54 -146 -142 -163 -26 -4 -55 -14 -63
-21 -13 -10 -73 -120 -170 -306 l-27 -52 27 -57 c44 -93 26 -168 -55 -222 -69
-47 -188 -15 -224 61 -22 46 -20 113 4 159 11 20 20 47 20 59 -1 13 -42 99
-93 193 -98 180 -95 177 -182 191 -79 12 -137 102 -121 188 20 104 151 161
237 103z"/>
</g>
</svg>
