<?xml version="1.0" standalone="no"?>
<!DOCTYPE svg PUBLIC "-//W3C//DTD SVG 20010904//EN"
 "http://www.w3.org/TR/2001/REC-SVG-20010904/DTD/svg10.dtd">
<svg version="1.0" xmlns="http://www.w3.org/2000/svg"
 width="497.000000pt" height="497.000000pt" viewBox="0 0 497.000000 497.000000"
 preserveAspectRatio="xMidYMid meet">
<metadata>
Created by potrace 1.11, written by Peter Selinger 2001-2013
</metadata>
<g transform="translate(0.000000,497.000000) scale(0.100000,-0.100000)"
fill="#000000" stroke="none">
<path d="M4400 4509 c-71 -28 -117 -117 -89 -171 6 -13 48 -59 93 -104 45 -45
90 -91 100 -103 l19 -21 -1085 0 c-596 0 -1091 -1 -1099 -4 -8 -3 -42 -7 -77
-11 -144 -13 -386 -90 -540 -172 -243 -128 -460 -330 -609 -568 -95 -152 -193
-400 -218 -555 -3 -19 -7 -46 -10 -60 -14 -77 -17 -105 -19 -210 -9 -356 108
-736 308 -1001 74 -98 188 -208 216 -210 68 -5 78 -1 114 35 62 62 60 120 -7
188 -356 362 -474 905 -305 1403 65 193 175 366 323 511 227 221 488 351 785
389 30 4 64 9 75 11 23 5 2137 5 2142 0 2 -1 -44 -49 -102 -106 -128 -127
-142 -167 -82 -232 39 -41 70 -58 111 -58 39 0 47 7 264 223 123 122 230 234
238 249 18 35 18 88 -1 116 -31 43 -450 455 -473 463 -28 11 -40 11 -72 -2z"/>
<path d="M3475 3645 c-30 -21 -53 -56 -60 -96 -6 -29 26 -87 71 -129 93 -86
219 -289 274 -438 66 -181 84 -286 84 -482 0 -313 -69 -542 -238 -789 -52 -76
-203 -236 -264 -282 -19 -13 -46 -33 -60 -45 -134 -103 -336 -193 -519 -228
-43 -9 -91 -19 -108 -23 -16 -4 -523 -8 -1125 -10 l-1095 -4 106 108 c59 59
111 116 116 127 31 59 -65 180 -134 170 -7 -1 -20 -2 -29 -3 -16 -1 -483 -460
-485 -477 -7 -45 -4 -83 9 -104 24 -40 459 -470 476 -471 9 -1 22 -2 29 -3 69
-10 165 111 134 170 -5 11 -57 67 -115 126 l-106 107 1124 4 c619 2 1141 6
1160 11 223 48 326 80 466 147 306 145 569 401 727 709 30 58 66 137 81 176
34 91 83 283 91 360 4 32 8 70 11 84 5 33 6 238 0 270 -3 14 -7 48 -11 75 -34
270 -175 615 -322 787 -149 174 -209 206 -288 153z"/>
<path d="M1749 3259 c-191 -21 -315 -206 -265 -393 36 -131 142 -215 291 -229
28 -3 62 -10 77 -16 27 -10 69 -58 87 -101 6 -14 24 -47 39 -75 56 -102 127
-234 198 -371 88 -169 91 -186 37 -282 -37 -64 -38 -71 -38 -162 0 -86 3 -100
29 -148 91 -163 289 -213 447 -113 91 57 132 134 136 254 2 85 1 89 -37 163
-25 47 -40 88 -40 111 0 34 54 146 186 388 92 169 146 272 150 285 10 30 73
61 137 67 138 13 220 67 275 183 55 114 28 264 -64 353 -58 56 -117 81 -201
85 -112 6 -198 -32 -264 -117 -77 -98 -86 -221 -26 -345 48 -97 48 -129 -2
-220 -66 -121 -106 -196 -174 -326 -127 -241 -141 -263 -176 -284 -69 -40
-165 -10 -203 65 -23 45 -227 431 -285 538 -27 50 -45 97 -45 116 0 18 17 68
38 111 35 71 39 86 38 154 -1 97 -29 163 -95 225 -75 70 -151 96 -250 84z"/>
</g>
</svg>
