<svg id="Calque_1" data-name="Calque 1" xmlns="http://www.w3.org/2000/svg" viewBox="0 0 424.5 212.67"><defs><style>.cls-1{fill:#eaeaea;}.cls-2{fill:#7b6796;}.cls-3{fill:#cac9d3;}.cls-4{fill:#44ad50;}.cls-5{fill:#d33131;}</style></defs><title>icon_compare</title><rect class="cls-1" width="193.83" height="212.67"/><rect class="cls-2" x="12.15" y="12" width="168.62" height="82.5"/><rect class="cls-3" x="12.15" y="111" width="144.01" height="14"/><rect class="cls-3" x="12.15" y="135" width="164.52" height="14"/><rect class="cls-3" x="12.15" y="159" width="89.78" height="14"/><rect class="cls-1" x="230.67" width="193.83" height="212.67"/><rect class="cls-2" x="242.82" y="12" width="168.62" height="82.5"/><rect class="cls-3" x="242.82" y="111" width="144.01" height="14"/><rect class="cls-3" x="242.82" y="135" width="164.52" height="14"/><rect class="cls-3" x="242.82" y="159" width="89.78" height="14"/><polygon class="cls-4" points="292.67 126.49 229.75 98.67 229.75 113.38 120.87 113.38 120.87 139.61 229.75 139.61 229.75 154.31 292.67 126.49"/><polygon class="cls-5" points="120.87 183.94 183.79 211.77 183.79 197.06 292.67 197.06 292.67 170.83 183.79 170.83 183.79 156.12 120.87 183.94"/></svg>