<svg id="Calque_1" data-name="Calque 1" xmlns="http://www.w3.org/2000/svg" xmlns:xlink="http://www.w3.org/1999/xlink" viewBox="0 0 241.33 141.17"><defs><style>.cls-1{fill:none;}.cls-2{fill:#eaeaea;}.cls-3{fill:#cac9d3;}.cls-4{clip-path:url(#clip-path);}.cls-5{fill:#f72359;}.cls-6{clip-path:url(#clip-path-2);}.cls-7{fill:#2dcc70;}</style><clipPath id="clip-path"><rect class="cls-1" x="182.83" y="91" width="37" height="37"/></clipPath><clipPath id="clip-path-2"><rect class="cls-1" x="177.67" y="8" width="47.33" height="47.33"/></clipPath></defs><title>icon_vote</title><rect class="cls-2" width="241.33" height="63.33"/><rect class="cls-3" x="8" y="8" width="154" height="47.33"/><rect class="cls-2" y="77.83" width="241.33" height="63.33"/><rect class="cls-3" x="8" y="85.83" width="154" height="47.33"/><g class="cls-4"><polygon class="cls-5" points="182.97 97.94 194.54 109.51 182.83 121.22 182.83 121.24 189.54 127.85 201.23 116.2 213.03 128 219.65 121.28 207.93 109.52 219.8 97.7 212.88 91.17 201.24 102.81 189.5 91.02 182.97 97.94"/></g><g class="cls-6"><polygon class="cls-7" points="196.62 35.68 184.8 24.12 177.97 30.6 196.71 49.43 225 20.97 218.43 14.22 196.62 35.68"/></g></svg>