<svg id="Calque_1" data-name="Calque 1" xmlns="http://www.w3.org/2000/svg" viewBox="0 0 424.5 212.67"><defs><style>.cls-1{fill:#eaeaea;}.cls-2{fill:#7b6796;}.cls-3{fill:#cac9d3;}.cls-4{fill:#2dcc70;}.cls-5{fill:#f72359;}</style></defs><title>icon_compare</title><rect class="cls-1" width="193.83" height="212.67"/><rect class="cls-2" x="12.15" y="12" width="168.62" height="82.5"/><rect class="cls-3" x="12.15" y="111" width="144.01" height="14"/><rect class="cls-3" x="12.15" y="135" width="164.52" height="14"/><rect class="cls-3" x="12.15" y="159" width="89.78" height="14"/><rect class="cls-1" x="230.67" width="193.83" height="212.67"/><rect class="cls-2" x="242.82" y="12" width="168.62" height="82.5"/><rect class="cls-3" x="242.82" y="111" width="144.01" height="14"/><rect class="cls-3" x="242.82" y="135" width="164.52" height="14"/><rect class="cls-3" x="242.82" y="159" width="89.78" height="14"/><polygon class="cls-4" points="292.32 61.5 233.58 33.68 233.58 48.38 131.92 48.38 131.92 74.62 233.58 74.62 233.58 89.32 292.32 61.5"/><polygon class="cls-5" points="132.18 151.17 190.92 178.99 190.92 164.28 292.58 164.28 292.58 138.05 190.92 138.05 190.92 123.34 132.18 151.17"/></svg>
