<svg id="Calque_1" data-name="Calque 1" xmlns="http://www.w3.org/2000/svg" viewBox="0 0 216.7 209.16"><defs><style>.cls-1{fill:#e0e0e0;}.cls-2{fill:#6d2020;}.cls-3{fill:#a34646;}.cls-4{fill:#3eba3e;}.cls-5{fill:#51e551;}.cls-6{fill:#f3fcff;}</style></defs><title>icon_potion</title><path class="cls-1" d="M211.54,179.35l-86-149.19H91.2l-86,149.19c-16.24,28.15,11,29.81,11,29.81H200.54S227.77,207.51,211.54,179.35Z"/><polygon class="cls-1" points="126.06 9.82 108.35 9.82 90.64 9.82 83 45.53 108.35 45.53 133.7 45.53 126.06 9.82"/><path class="cls-2" d="M121.22,9.92V5.36c0-3-1.37-5.36-3.05-5.36H99.24c-1.68,0-3.05,2.41-3.05,5.36V9.92h25Z"/><path class="cls-3" d="M96.18,9.92V33.26c0,3,1.37,5.36,3.05,5.36h18.93c1.68,0,3.05-2.41,3.05-5.36V9.92h-25Z"/><path class="cls-4" d="M26.49,175s-1.71,21.34,81.82,21.34S190.12,175,190.12,175H26.49Z"/><path class="cls-5" d="M122,56.66H94.75L26.49,175H190.21Z"/><path class="cls-5" d="M190.12,175H26.49S106,181.63,190.12,175Z"/><rect class="cls-6" x="141.69" y="76.94" width="14.86" height="106.56" rx="7.43" ry="7.43" transform="translate(-45.13 92.01) rotate(-30)"/><circle class="cls-4" cx="75.7" cy="145.66" r="8.13"/><circle class="cls-4" cx="101.2" cy="119.66" r="5.5"/><circle class="cls-4" cx="131.7" cy="177.96" r="13"/><circle class="cls-4" cx="112.85" cy="183.16" r="8.15"/></svg>
