<svg id="Calque_1" data-name="Calque 1" xmlns="http://www.w3.org/2000/svg" viewBox="0 0 948.34 1000.02"><defs><style>.cls-1{fill:#4b4060;}.cls-2{fill:#5c4e72;}.cls-3{fill:#7b6696;}.cls-4{fill:#413754;}.cls-5{fill:#8674a3;}.cls-6{fill:#4c4360;}.cls-7{fill:#fdffe6;}.cls-8{fill:#afaabf;}.cls-9{fill:#cac5d8;}</style></defs><title>movie_clap</title><polygon class="cls-1" points="887.65 622.92 887.42 682.3 877.43 748.24 877.35 694.12 887.65 622.92"/><polygon class="cls-2" points="865.86 742.25 11.67 618.6 11.67 569.55 93.97 57.95 948.23 123.65 947.62 179.43 865.86 742.25"/><rect class="cls-3" x="48.17" y="58.86" width="863.23" height="575.49" transform="translate(54.6 -65.15) rotate(8.24)"/><polygon class="cls-4" points="865.67 692.29 865.67 750.24 947.63 179.43 948.34 123.65 865.67 692.29"/><rect class="cls-5" x="0.58" y="559.06" width="886.49" height="71.94" transform="translate(89.81 -57.44) rotate(8.24)"/><polygon class="cls-2" points="32.3 947.62 32.18 1000.02 882.36 831.17 882.15 777.23 32.3 947.62"/><polygon class="cls-6" points="18.15 877.09 17.7 929.49 32.18 1000.02 32.3 947.62 18.15 877.09"/><rect class="cls-7" x="67" y="213.13" width="863.13" height="6.66" transform="matrix(0.99, 0.14, -0.14, 0.99, 36.15, -69.18)"/><rect class="cls-7" x="56.02" y="289.01" width="863.04" height="6.66" transform="translate(46.9 -66.82) rotate(8.24)"/><polyline class="cls-2" points="877.69 748.24 0.18 622.28 0 567.13 877.61 694.12 877.69 748.24"/><rect class="cls-7" x="27.76" y="484.24" width="862.85" height="6.66" transform="translate(74.58 -60.75) rotate(8.24)"/><rect class="cls-7" x="77.97" y="137.36" width="863.12" height="6.66" transform="matrix(0.99, 0.14, -0.14, 0.99, 25.41, -71.54)"/><rect class="cls-5" x="16.77" y="791.19" width="866.77" height="71.94" transform="translate(-153.82 104.63) rotate(-11.34)"/><rect class="cls-7" x="369.8" y="385.32" width="194.83" height="6.66" transform="translate(918.79 -18.08) rotate(98.24)"/><path class="cls-7" d="M857.19,607.15c-5.23-.72-7.87-3.71-7.25-8.23,0.65-4.69,4-7,9.25-6.29l4.78,0.66,0.86-6.27,3.5,0.48-2.86,20.78Zm6.35-10.71-4.63-.64c-3.21-.44-5.2.68-5.59,3.5s1.26,4.29,4.46,4.73l4.63,0.64Z"/><path class="cls-7" d="M838.1,589.76c0.3,0,.63.06,1,0.1l4.93,0.68,0.86-6.27,3.5,0.48-2.86,20.78-8.43-1.16c-5.31-.73-8-3.73-7.4-8.25,0.46-3.33,2.32-5.46,5.23-6.15l-3.71-7.59,4,0.55Zm0.52,3.25c-3.21-.44-5.24.67-5.62,3.49s1.28,4.29,4.49,4.73l4.93,0.68,1.13-8.22Z"/><path class="cls-7" d="M805.14,589.4c0.82-5.94,6.26-9.88,12.47-9s10.38,6.12,9.57,12.06-6.25,9.82-12.46,9S804.32,595.34,805.14,589.4Zm18.47,2.54a7.52,7.52,0,0,0-6.47-8.42A7.43,7.43,0,1,0,823.61,591.95Z"/><path class="cls-7" d="M791.45,598.11c-6.24-.86-10.15-5.84-9.32-11.87s6-9.77,12.27-8.9l8.43,1.16L800,599.28Zm7.44-16.95-5.11-.7a7,7,0,0,0-8.12,6.24,7.15,7.15,0,0,0,6.28,8.28l5,0.68Z"/><path class="cls-7" d="M761,581.51c0.75-5.43,4.62-8.29,10.23-7.52s8.6,4.57,7.85,10l-1.67,12.17-3.5-.48,1.67-12.17c0.48-3.5-1.4-5.91-4.81-6.38s-5.78,1.32-6.26,4.86l-1.67,12.17-3.5-.48Z"/><path class="cls-7" d="M737.6,587.53l2.4-2.27a8.19,8.19,0,0,0,5.43,3.44,7.39,7.39,0,1,0,2-14.64,8.67,8.67,0,0,0-6.13,1.67l-1.76-2.6a11.91,11.91,0,0,1,8.52-2.31,10.64,10.64,0,0,1,9.35,12.06c-0.81,5.91-6.22,9.79-12.36,8.95A11.58,11.58,0,0,1,737.6,587.53Z"/><path class="cls-7" d="M726.4,586l2.43-17.64,3.5,0.48-2.43,17.64,6.56,0.9L736,590.49l-16.66-2.29,0.43-3.15Z"/><path class="cls-7" d="M719.24,567l-2.86,20.78-3.5-.48,2.86-20.78Z"/><path class="cls-7" d="M688.53,573.36c0.82-5.94,6.26-9.88,12.47-9s10.38,6.12,9.57,12.06-6.25,9.82-12.46,9S687.72,579.3,688.53,573.36ZM707,575.9a7.52,7.52,0,0,0-6.47-8.42A7.43,7.43,0,1,0,707,575.9Z"/><path class="cls-7" d="M671.64,560.45l9,16.43L682.72,562l3.5,0.48-2.86,20.78-3.44-.47-9.08-16.47-2.05,14.93-3.44-.47L668.2,560Z"/><path class="cls-7" d="M865.16,530.62l1.89-2.88a12.54,12.54,0,0,0,5.81,2.79c2,0.29,3.49-.29,3.69-1.69,0.64-4.54-10.92-3.69-9.83-11.16,0.52-3.71,4.11-5.53,8.68-4.89a12.91,12.91,0,0,1,8,4.49l-1.94,2.81a11.06,11.06,0,0,0-6.61-4c-2.43-.34-4,0.37-4.24,2-0.65,4.63,10.93,3.63,9.89,11-0.5,3.56-3.87,5.36-8.39,4.72A13.67,13.67,0,0,1,865.16,530.62Z"/><path class="cls-7" d="M843.86,526.47l2.41-2.26a8.19,8.19,0,0,0,5.41,3.46A7.39,7.39,0,1,0,853.75,513a8.67,8.67,0,0,0-6.13,1.65l-1.75-2.61a11.91,11.91,0,0,1,8.52-2.28,10.64,10.64,0,0,1,9.31,12.09c-0.83,5.91-6.25,9.77-12.4,8.91A11.58,11.58,0,0,1,843.86,526.47Z"/><path class="cls-7" d="M836.77,525.44l0.79-5.61-10.15-1.43,0.44-3.15L838,516.68l0.81-5.73-11.69-1.65,0.44-3.15,15.2,2.14-2.93,20.77L825,527l0.44-3.15Z"/><path class="cls-7" d="M808.72,503.5l9,16.46,2.1-14.9,3.5,0.49-2.93,20.77-3.44-.49-9-16.5-2.11,14.93-3.44-.49L805.28,503Z"/><path class="cls-7" d="M793.8,519.37l0.79-5.61-10.15-1.43,0.44-3.15L795,510.62l0.81-5.73-11.69-1.65,0.44-3.15,15.2,2.14L796.86,523,782,520.92l0.44-3.15Z"/><path class="cls-7" d="M898.55,338.76c-6.23-.9-10.11-5.91-9.25-11.93s6-9.73,12.32-8.83l8.43,1.21-3,20.77Zm7.55-16.9-5.1-.73a7,7,0,0,0-8.16,6.18,7.15,7.15,0,0,0,6.22,8.31l5,0.71Z"/><path class="cls-7" d="M887.06,315.91l-3,20.77-3.5-.5,3-20.77Z"/><path class="cls-7" d="M867.82,319.56c0.3,0,.63.06,1,0.11l4.93,0.71,0.9-6.26,3.5,0.5-3,20.77-8.43-1.21c-5.31-.76-8-3.78-7.35-8.29,0.48-3.32,2.36-5.44,5.27-6.12L861,312.15l4,0.57Zm0.5,3.25c-3.2-.46-5.24.64-5.64,3.46s1.26,4.3,4.46,4.76l4.93,0.71,1.18-8.22Z"/><path class="cls-7" d="M850.62,328.65l0.81-5.61-10.15-1.46,0.45-3.14,10.15,1.46,0.82-5.73L841,312.49l0.45-3.14,15.19,2.19-3,20.77-14.83-2.13,0.45-3.14Z"/><path class="cls-7" d="M817.57,323.93l2.41-2.26a8.19,8.19,0,0,0,5.4,3.47,7.39,7.39,0,1,0,2.1-14.63,8.67,8.67,0,0,0-6.14,1.63l-1.74-2.61a11.91,11.91,0,0,1,8.53-2.26,10.64,10.64,0,0,1,9.28,12.12c-0.85,5.9-6.28,9.76-12.42,8.87A11.58,11.58,0,0,1,817.57,323.93Z"/><path class="cls-7" d="M806.38,322.29l2.54-17.62,3.5,0.5-2.54,17.62,6.56,0.94L816,326.88l-16.64-2.39,0.45-3.14Z"/><path class="cls-7" d="M778.8,310.93c0.85-5.93,6.32-9.84,12.52-8.95s10.35,6.18,9.49,12.12-6.31,9.78-12.51,8.89S777.94,316.86,778.8,310.93Zm18.45,2.66a7.52,7.52,0,0,0-6.41-8.46A7.43,7.43,0,1,0,797.25,313.59Z"/><path class="cls-7" d="M766.27,304.95c0.3,0,.63.06,1,0.11l4.93,0.71,0.9-6.26,3.5,0.5-3,20.77-8.43-1.21c-5.31-.76-8-3.78-7.35-8.29,0.48-3.32,2.36-5.44,5.27-6.12l-3.66-7.61,4,0.57Zm0.5,3.25c-3.2-.46-5.24.64-5.64,3.46s1.26,4.3,4.46,4.76l4.93,0.71,1.18-8.22Z"/><path class="cls-7" d="M899.76,257.17l2.41-2.26a8.19,8.19,0,0,0,5.42,3.46,7.39,7.39,0,1,0,2.06-14.63,8.67,8.67,0,0,0-6.13,1.65l-1.75-2.61a11.91,11.91,0,0,1,8.52-2.28,10.64,10.64,0,0,1,9.31,12.09c-0.83,5.91-6.25,9.77-12.39,8.91A11.58,11.58,0,0,1,899.76,257.17Z"/><path class="cls-7" d="M895.21,243.3l2.65-4.41,3.65,0.51-12.1,19.48-3.59-.51-6.15-22.05,3.74,0.53,1.33,5Zm-7,11.61,5.22-8.68-7.84-1.1Z"/><path class="cls-7" d="M858.17,233.3L856,248.83l8.44-12.43,2.29,0.32L871.42,251l2.19-15.52,3.29,0.46L874,256.71l-4.15-.59-4.91-14.77-8.77,12.84-4.13-.58,2.93-20.78Z"/><path class="cls-7" d="M843.46,249.21l0.79-5.61-10.15-1.43,0.44-3.15,10.15,1.43,0.81-5.73-11.69-1.65,0.44-3.15,15.2,2.14-2.93,20.78-14.84-2.09,0.44-3.15Z"/><path class="cls-7" d="M819.71,234.3c0.3,0,.63.06,1,0.1l4.93,0.69,0.88-6.26,3.5,0.49-2.93,20.78-8.43-1.19c-5.31-.75-8-3.76-7.37-8.27,0.47-3.32,2.34-5.45,5.25-6.13l-3.68-7.6,4,0.56Zm0.51,3.25c-3.21-.45-5.24.65-5.63,3.47s1.27,4.3,4.48,4.75l4.93,0.69,1.16-8.22Z"/><path class="cls-7" d="M804.92,230.58l2.65-4.41,3.65,0.51-12.1,19.48-3.59-.51-6.15-22.05,3.74,0.53,1.33,5Zm-7,11.61,5.22-8.68-7.84-1.1Z"/><path class="cls-7" d="M920.39,185.61c-6.23-.88-10.12-5.89-9.27-11.91s6-9.74,12.3-8.85l8.43,1.2-2.95,20.77Zm7.52-16.92-5.1-.72a7,7,0,0,0-8.15,6.2,7.15,7.15,0,0,0,6.24,8.3l5,0.7Z"/><path class="cls-7" d="M905.79,167.13l2.65-4.41,3.65,0.52L900,182.71l-3.59-.51-6.13-22.06,3.74,0.53,1.32,5Zm-7,11.6,5.23-8.67-7.83-1.11Z"/><path class="cls-7" d="M879.44,176.59l2.5-17.63,3.5,0.5-2.5,17.63L889.5,178l-0.45,3.15L872.4,178.8l0.45-3.15Z"/><path class="cls-7" d="M866.35,174.73l0.8-5.61L857,167.69l0.45-3.15L867.6,166l0.81-5.73-11.69-1.66,0.45-3.15,15.19,2.16-2.95,20.77-14.84-2.1,0.45-3.15Z"/><path class="cls-7" d="M434.15,467.1l2.49-17.63,3.5,0.5-2.49,17.63,6.56,0.93-0.44,3.15-16.65-2.35,0.44-3.15Z"/><path class="cls-7" d="M425.5,452.68l2.65-4.41,3.65,0.52L419.7,468.27l-3.59-.51L410,445.7l3.74,0.53,1.33,5Zm-7,11.61,5.22-8.68-7.83-1.11Z"/><path class="cls-7" d="M398.87,453.49L403,450.1l0.75-5.28,3.5,0.5-2.94,20.77-3.5-.5,1.52-10.74-11.43,9.34-4.13-.58,9.3-7.74-6.89-13.11,4.21,0.6Z"/><path class="cls-7" d="M379.9,459.43l0.79-5.61-10.15-1.43,0.44-3.15,10.15,1.43,0.81-5.73-11.69-1.65,0.44-3.15,15.19,2.15L383,463.07,368.12,461l0.44-3.15Z"/><polyline class="cls-7" points="877.35 694.12 613.36 655.88 702.84 596.17 887.65 622.92"/><polyline class="cls-7" points="869.7 706.34 608.35 758.61 700.93 813.56 882.15 777.23"/><polygon class="cls-7" points="602.28 581.62 513.16 641.38 410.57 626.56 500.08 566.83 602.28 581.62"/><polygon class="cls-7" points="610.01 831.89 517.68 776.93 416.2 797.35 508.67 852.11 610.01 831.89"/><polygon class="cls-7" points="421.67 869.55 329.28 814.56 227.78 834.97 320.45 889.85 421.67 869.55"/><polygon class="cls-7" points="226.62 908.43 134.56 853.63 33.06 874.04 125.36 928.7 226.62 908.43"/><polygon class="cls-7" points="401.93 552.62 312.83 612.41 210.28 597.56 299.78 537.84 401.93 552.62"/><polygon class="cls-7" points="199.22 523.28 110.07 583.06 7.51 568.22 97.02 508.49 199.22 523.28"/><path class="cls-2" d="M740.72,647l84.72,114.74s0.33,0.46.92,1.17v0h0c2.74,3.34,11.12,12.48,19.63,9.83,9-2.8,9.6-14.37,9.6-14.37l11-73.38,3.74-25,0.05-.36a12.26,12.26,0,0,0,.23-2.17c0.39-5.83-.93-10.3-3.16-13.66-2.53-4.33-7-8.22-14.81-9.76-0.84-.21-1.36-0.31-1.36-0.31h-0.1L826,630l-73.2-10.94s-11.28-2.73-16.58,5C730.11,633.07,740.72,647,740.72,647Z"/><path class="cls-5" d="M740.72,643.05l84.72,114.74s0.33,0.46.92,1.17v0h0c2.74,3.34,11.12,12.48,19.63,9.83,9-2.8,9.6-14.37,9.6-14.37l11-73.38,3.74-25,0.05-.36a12.26,12.26,0,0,0,.23-2.17c0.39-5.83-.93-10.3-3.16-13.66-2.53-4.33-7-8.22-14.81-9.76-0.84-.21-1.36-0.31-1.36-0.31h-0.1L826,626l-73.2-10.94s-11.28-2.73-16.58,5C730.11,629.08,740.72,643.05,740.72,643.05Z"/><ellipse class="cls-8" cx="760.13" cy="633.89" rx="9.05" ry="12.57" transform="translate(23.89 1295.38) rotate(-81.76)"/><ellipse class="cls-9" cx="760.13" cy="631.83" rx="9.05" ry="12.57" transform="translate(25.93 1293.61) rotate(-81.76)"/><ellipse class="cls-8" cx="849.85" cy="647.91" rx="9.05" ry="12.57" transform="translate(86.88 1396.19) rotate(-81.76)"/><ellipse class="cls-9" cx="849.85" cy="645.85" rx="9.05" ry="12.57" transform="translate(88.93 1394.42) rotate(-81.76)"/><ellipse class="cls-8" cx="835.32" cy="734.64" rx="9.05" ry="12.57" transform="translate(-11.4 1456.11) rotate(-81.76)"/><ellipse class="cls-9" cx="835.32" cy="732.57" rx="9.05" ry="12.57" transform="translate(-9.35 1454.34) rotate(-81.76)"/></svg>
