<?xml version="1.0" encoding="utf-8"?>
<!-- Generator: Adobe Illustrator 21.0.0, SVG Export Plug-In . SVG Version: 6.00 Build 0)  -->
<svg version="1.1" id="Layer_1" xmlns="http://www.w3.org/2000/svg" xmlns:xlink="http://www.w3.org/1999/xlink" x="0px" y="0px"
	 viewBox="0 0 300.4 300.4" style="enable-background:new 0 0 300.4 300.4;" xml:space="preserve">
<style type="text/css">
	.st0{fill:#BF392C;}
	.st1{fill:#E2574C;}
	.st2{fill:#ED9D5D;}
	.st3{fill:#D58D54;}
	.st4{fill:none;}
	.st5{enable-background:new    ;}
</style>
<g>
	<path class="st0" d="M277,0h-84.5L70.4,178.4h84.5L277,0z"/>
	<path class="st1" d="M23.5,0H108l122,178.4h-84.5L23.5,0z"/>
	<path class="st2" d="M154.9,93.9c57.3,0,103.3,46,103.3,103.3s-46,103.3-103.3,103.3s-103.3-46-103.3-103.3S97.6,93.9,154.9,93.9z"
		/>
	<path class="st3" d="M154.9,122.1c-41.3,0-75.1,33.8-75.1,75.1s33.8,75.1,75.1,75.1s75.1-33.8,75.1-75.1S196.2,122.1,154.9,122.1z
		 M154.9,253.5c-31,0-56.3-25.4-56.3-56.3s25.3-56.3,56.3-56.3s56.3,25.4,56.3,56.3S185.9,253.5,154.9,253.5z"/>
</g>
<rect x="66.8" y="176.4" class="st4" width="176.2" height="41.4"/>
<g class="st5">
	<path class="st3" d="M113.2,216.5v-30.1h-7v-7.7h16.6v37.9H113.2z"/>
	<path class="st3" d="M163.8,197.6c0,12.4-6,19.2-16.7,19.2c-10.8,0-16.8-6.9-16.8-19.2c0-12.3,6-19.2,16.8-19.2
		C157.8,178.4,163.8,185.2,163.8,197.6z M140.2,197.6c0,8.6,2.1,12.2,6.9,12.2c4.8,0,6.9-3.6,6.9-12.2c0-8.6-2.1-12.2-6.9-12.2
		C142.2,185.4,140.2,188.9,140.2,197.6z"/>
	<path class="st3" d="M201.7,197.6c0,12.4-6,19.2-16.7,19.2c-10.8,0-16.8-6.9-16.8-19.2c0-12.3,6-19.2,16.8-19.2
		C195.7,178.4,201.7,185.2,201.7,197.6z M178.1,197.6c0,8.6,2.1,12.2,6.9,12.2c4.8,0,6.9-3.6,6.9-12.2c0-8.6-2.1-12.2-6.9-12.2
		C180.2,185.4,178.1,188.9,178.1,197.6z"/>
</g>
</svg>
