<?xml version="1.0" encoding="utf-8"?>
<!-- Generator: Adobe Illustrator 21.0.0, SVG Export Plug-In . SVG Version: 6.00 Build 0)  -->
<svg version="1.1" id="Layer_1" xmlns="http://www.w3.org/2000/svg" xmlns:xlink="http://www.w3.org/1999/xlink" x="0px" y="0px"
	 viewBox="0 0 300.4 300.4" style="enable-background:new 0 0 300.4 300.4;" xml:space="preserve">
<style type="text/css">
	.st0{fill:#BF392C;}
	.st1{fill:#E2574C;}
	.st2{fill:#EFC75E;}
	.st3{fill:#D7B354;}
	.st4{fill:none;}
	.st5{enable-background:new    ;}
</style>
<g>
	<path class="st0" d="M277,0h-84.5L70.4,178.4h84.5L277,0z"/>
	<path class="st1" d="M23.5,0H108l122,178.4h-84.5L23.5,0z"/>
	<path class="st2" d="M154.9,93.9c57.3,0,103.3,46,103.3,103.3s-46,103.3-103.3,103.3s-103.3-46-103.3-103.3S97.6,93.9,154.9,93.9z"
		/>
	<path class="st3" d="M154.9,122.1c-41.3,0-75.1,33.8-75.1,75.1s33.8,75.1,75.1,75.1s75.1-33.8,75.1-75.1S196.2,122.1,154.9,122.1z
		 M154.9,253.5c-31,0-56.3-25.4-56.3-56.3s25.3-56.3,56.3-56.3s56.3,25.4,56.3,56.3S185.9,253.5,154.9,253.5z"/>
</g>
<rect x="66.8" y="177.1" class="st4" width="176.2" height="40.1"/>
<g class="st5">
	<path class="st3" d="M113.6,215.7v-29h-6.7v-7.4h16v36.5H113.6z"/>
	<path class="st3" d="M162.3,197.4c0,11.9-5.8,18.5-16.1,18.5c-10.4,0-16.2-6.6-16.2-18.5c0-11.9,5.8-18.5,16.2-18.5
		C156.5,179,162.3,185.6,162.3,197.4z M139.6,197.4c0,8.3,2,11.8,6.7,11.8c4.6,0,6.6-3.4,6.6-11.8s-2-11.7-6.6-11.7
		C141.6,185.7,139.6,189.1,139.6,197.4z"/>
	<path class="st3" d="M182.2,201.4l-4.8,5.4v8.9h-9.3v-36.4h9.3V195l13.9-15.8H202l-13.5,15.1l14.4,21.3h-11.1L182.2,201.4z"/>
</g>
</svg>
