<?xml version="1.0" encoding="utf-8"?>
<!-- Generator: Adobe Illustrator 21.0.0, SVG Export Plug-In . SVG Version: 6.00 Build 0)  -->
<svg version="1.1" id="Layer_1" xmlns="http://www.w3.org/2000/svg" xmlns:xlink="http://www.w3.org/1999/xlink" x="0px" y="0px"
	 viewBox="0 0 300.4 300.4" style="enable-background:new 0 0 300.4 300.4;" xml:space="preserve">
<style type="text/css">
	.st0{fill:#BF392C;}
	.st1{fill:#E2574C;}
	.st2{fill:#38312D;}
	.st3{fill:#564841;}
	.st4{fill:none;}
	.st5{enable-background:new    ;}
</style>
<g>
	<path class="st0" d="M277,0h-84.5L70.4,178.4h84.5L277,0z"/>
	<path class="st1" d="M23.5,0H108l122,178.4h-84.5L23.5,0z"/>
	<path class="st2" d="M154.9,93.9c57.3,0,103.3,46,103.3,103.3s-46,103.3-103.3,103.3s-103.3-46-103.3-103.3S97.6,93.9,154.9,93.9z"
		/>
	<path class="st3" d="M154.9,122.1c-41.3,0-75.1,33.8-75.1,75.1s33.8,75.1,75.1,75.1s75.1-33.8,75.1-75.1S196.2,122.1,154.9,122.1z
		 M154.9,253.5c-31,0-56.3-25.4-56.3-56.3s25.3-56.3,56.3-56.3s56.3,25.4,56.3,56.3S185.9,253.5,154.9,253.5z"/>
</g>
<rect x="107.1" y="168.8" class="st4" width="95.5" height="56.9"/>
<g class="st5">
	<path class="st3" d="M123.7,223.7v-41.3h-9.5v-10.6h22.7v51.9H123.7z"/>
	<path class="st3" d="M193.1,197.7c0,16.9-8.2,26.3-22.9,26.3c-14.8,0-23-9.4-23-26.3c0-16.9,8.2-26.3,23-26.3
		C184.8,171.4,193.1,180.8,193.1,197.7z M160.7,197.7c0,11.8,2.8,16.7,9.5,16.7c6.5,0,9.4-4.9,9.4-16.7s-2.9-16.7-9.4-16.7
		C163.5,181,160.7,185.8,160.7,197.7z"/>
</g>
</svg>
