<?xml version="1.0" encoding="utf-8"?>
<!-- Generator: Adobe Illustrator 21.0.0, SVG Export Plug-In . SVG Version: 6.00 Build 0)  -->
<svg version="1.1" id="Layer_1" xmlns="http://www.w3.org/2000/svg" xmlns:xlink="http://www.w3.org/1999/xlink" x="0px" y="0px"
	 viewBox="0 0 300.4 300.4" style="enable-background:new 0 0 300.4 300.4;" xml:space="preserve">
<style type="text/css">
	.st0{fill:#BF392C;}
	.st1{fill:#E2574C;}
	.st2{fill:#A8DDDA;}
	.st3{fill:#69CCCA;}
	.st4{fill:none;}
	.st5{enable-background:new    ;}
</style>
<g>
	<path class="st0" d="M277,0h-84.5L70.4,178.4h84.5L277,0z"/>
	<path class="st1" d="M23.5,0H108l122,178.4h-84.5L23.5,0z"/>
	<path class="st2" d="M154.9,93.9c57.3,0,103.3,46,103.3,103.3s-46,103.3-103.3,103.3s-103.3-46-103.3-103.3S97.6,93.9,154.9,93.9z"
		/>
	<path class="st3" d="M154.9,122.1c-41.3,0-75.1,33.8-75.1,75.1s33.8,75.1,75.1,75.1s75.1-33.8,75.1-75.1S196.2,122.1,154.9,122.1z
		 M154.9,253.5c-31,0-56.3-25.4-56.3-56.3s25.3-56.3,56.3-56.3s56.3,25.4,56.3,56.3S185.9,253.5,154.9,253.5z"/>
</g>
<rect x="66.8" y="182.1" class="st4" width="176.2" height="31.4"/>
<g class="st5">
	<path class="st3" d="M109,211.8v-22.3h-5.2v-5.7h12.3v28H109z"/>
	<path class="st3" d="M146.5,197.8c0,9.2-4.4,14.2-12.4,14.2c-8,0-12.4-5.1-12.4-14.2c0-9.1,4.4-14.2,12.4-14.2
		C142.1,183.6,146.5,188.7,146.5,197.8z M129,197.8c0,6.4,1.5,9,5.1,9c3.5,0,5.1-2.6,5.1-9c0-6.4-1.6-9-5.1-9
		C130.6,188.8,129,191.4,129,197.8z"/>
	<path class="st3" d="M174.6,197.8c0,9.2-4.4,14.2-12.4,14.2c-8,0-12.4-5.1-12.4-14.2c0-9.1,4.4-14.2,12.4-14.2
		C170.2,183.6,174.6,188.7,174.6,197.8z M157.2,197.8c0,6.4,1.5,9,5.1,9c3.5,0,5.1-2.6,5.1-9c0-6.4-1.6-9-5.1-9
		C158.7,188.8,157.2,191.4,157.2,197.8z"/>
	<path class="st3" d="M190,200.8l-3.7,4.1v6.9h-7.1v-28h7.1v12.1l10.7-12.1h8.2l-10.4,11.6l11.1,16.4h-8.5L190,200.8z"/>
</g>
</svg>
