<?xml version="1.0" encoding="utf-8"?>
<!-- Generator: Adobe Illustrator 21.0.0, SVG Export Plug-In . SVG Version: 6.00 Build 0)  -->
<svg version="1.1" id="Layer_1" xmlns="http://www.w3.org/2000/svg" xmlns:xlink="http://www.w3.org/1999/xlink" x="0px" y="0px"
	 viewBox="0 0 300.4 300.4" style="enable-background:new 0 0 300.4 300.4;" xml:space="preserve">
<style type="text/css">
	.st0{fill:#BF392C;}
	.st1{fill:#E2574C;}
	.st2{fill:#E4E7E7;}
	.st3{fill:#CDCFCF;}
	.st4{fill:none;}
	.st5{enable-background:new    ;}
</style>
<g>
	<path class="st0" d="M277,0h-84.5L70.4,178.4h84.5L277,0z"/>
	<path class="st1" d="M23.5,0H108l122,178.4h-84.5L23.5,0z"/>
	<path class="st2" d="M154.9,93.9c57.3,0,103.3,46,103.3,103.3s-46,103.3-103.3,103.3s-103.3-46-103.3-103.3S97.6,93.9,154.9,93.9z"
		/>
	<path class="st3" d="M154.9,122.1c-41.3,0-75.1,33.8-75.1,75.1s33.8,75.1,75.1,75.1s75.1-33.8,75.1-75.1S196.2,122.1,154.9,122.1z
		 M154.9,253.5c-31,0-56.3-25.4-56.3-56.3s25.3-56.3,56.3-56.3s56.3,25.4,56.3,56.3S185.9,253.5,154.9,253.5z"/>
</g>
<rect x="66.8" y="168.7" class="st4" width="176.2" height="56.9"/>
<g class="st5">
	<path class="st3" d="M122.1,223.6v-41.3h-9.5v-10.6h22.7v51.9H122.1z"/>
	<path class="st3" d="M167.8,203.3l-6.9,7.6v12.7h-13.2v-51.8h13.2v22.4l19.8-22.4H196l-19.2,21.5l20.5,30.3h-15.8L167.8,203.3z"/>
</g>
</svg>
